# xmcd
#
# Track frame offsets:
#	150
#	12228
#	27506
#	46109
#	65407
#	88043
#	106163
#	119309
#	138665
#	158238
#	175950
#	191092
#	202532
#
# Disc length: 2976 seconds
#
# Revision: 2
# Processed by: cddbd v1.5.2PL0 Copyright (c) Steve Scherf et al.
# Submitted via: audiograbber 1.83.01
#
DISCID=a80b9e0d
DTITLE=Stan Walker - Truth and Soul
DYEAR=2015
DGENRE=Soul
TTITLE0=Ain't Too Proud To Beg
TTITLE1=Signed, Sealed, Delivered
TTITLE2=I'll Be There (featuring Samantha Jade)
TTITLE3=Try A Little Tenderness
TTITLE4=Let's Get It On
TTITLE5=This Woman's Work
TTITLE6=These Arms Of Mine
TTITLE7=Endless Love (featuring Dami Im)
TTITLE8=Is This Love
TTITLE9=End Of The Road (featuring Vince Harder, Barry Conrad and Fourtunate)
TTITLE10=I Got A Woman
TTITLE11=I Got You (I Feell Good)
TTITLE12=A Change Is Gonna Come
EXTD=
EXTT0=
EXTT1=
EXTT2=
EXTT3=
EXTT4=
EXTT5=
EXTT6=
EXTT7=
EXTT8=
EXTT9=
EXTT10=
EXTT11=
EXTT12=
PLAYORDER=
